<mxfile host="65bd71144e">
    <diagram id="sqPdJgOuWZAZjEmbaDlL" name="Page-1">
        <mxGraphModel dx="2642" dy="2240" grid="1" gridSize="10" guides="1" tooltips="1" connect="1" arrows="1" fold="1" page="1" pageScale="1" pageWidth="827" pageHeight="1169" math="0" shadow="0">
            <root>
                <mxCell id="0"/>
                <mxCell id="1" parent="0"/>
                <mxCell id="2" value="&lt;h1&gt;API-FOOTBALL&lt;/h1&gt;" style="ellipse;shape=cloud;whiteSpace=wrap;html=1;fillColor=#1ba1e2;fontColor=#ffffff;strokeColor=#006EAF;" vertex="1" parent="1">
                    <mxGeometry x="180" y="-30" width="300" height="130" as="geometry"/>
                </mxCell>
                <mxCell id="4" value="&lt;h2&gt;Match&lt;/h2&gt;&lt;h2&gt;LIVE&lt;/h2&gt;" style="whiteSpace=wrap;html=1;aspect=fixed;fillColor=#6a00ff;fontColor=#ffffff;strokeColor=#3700CC;" vertex="1" parent="1">
                    <mxGeometry x="104" y="350" width="160" height="160" as="geometry"/>
                </mxCell>
                <mxCell id="5" value="" style="endArrow=classic;html=1;entryX=0.13;entryY=0.77;entryDx=0;entryDy=0;entryPerimeter=0;exitX=0.5;exitY=0;exitDx=0;exitDy=0;curved=1;strokeColor=#F0F0F0;shadow=0;sketch=0;strokeWidth=5;" edge="1" parent="1" source="4" target="2">
                    <mxGeometry width="50" height="50" relative="1" as="geometry">
                        <mxPoint x="170" y="340" as="sourcePoint"/>
                        <mxPoint x="220" y="290" as="targetPoint"/>
                    </mxGeometry>
                </mxCell>
                <mxCell id="6" value="&lt;h3&gt;TAKE INFORMATION EVERY 1'30&quot;/2' IF HT&lt;/h3&gt;" style="edgeLabel;html=1;align=center;verticalAlign=middle;resizable=0;points=[];" vertex="1" connectable="0" parent="5">
                    <mxGeometry x="-0.1646" y="-1" relative="1" as="geometry">
                        <mxPoint x="10" y="-64" as="offset"/>
                    </mxGeometry>
                </mxCell>
                <mxCell id="7" value="&lt;h2&gt;Match&lt;/h2&gt;&lt;h2&gt;RESULT&lt;/h2&gt;" style="whiteSpace=wrap;html=1;aspect=fixed;fillColor=#6a00ff;fontColor=#ffffff;strokeColor=#3700CC;" vertex="1" parent="1">
                    <mxGeometry x="667" y="410" width="160" height="160" as="geometry"/>
                </mxCell>
                <mxCell id="8" value="" style="endArrow=classic;html=1;entryX=0.96;entryY=0.7;entryDx=0;entryDy=0;entryPerimeter=0;exitX=0.5;exitY=0;exitDx=0;exitDy=0;curved=1;strokeColor=#F0F0F0;shadow=0;sketch=0;strokeWidth=5;" edge="1" parent="1" source="7" target="2">
                    <mxGeometry width="50" height="50" relative="1" as="geometry">
                        <mxPoint x="630" y="360" as="sourcePoint"/>
                        <mxPoint x="749" y="230.10000000000002" as="targetPoint"/>
                    </mxGeometry>
                </mxCell>
                <mxCell id="9" value="&lt;h3&gt;TAKE INFORMATION ONCE A DAY&lt;/h3&gt;" style="edgeLabel;html=1;align=center;verticalAlign=middle;resizable=0;points=[];" vertex="1" connectable="0" parent="8">
                    <mxGeometry x="-0.1646" y="-1" relative="1" as="geometry">
                        <mxPoint x="-51" y="-53" as="offset"/>
                    </mxGeometry>
                </mxCell>
                <mxCell id="10" value="&lt;h2&gt;Statistics&lt;/h2&gt;&lt;div&gt;(Weekly/Monthly/Yearly)&lt;/div&gt;" style="whiteSpace=wrap;html=1;aspect=fixed;fillColor=#6a00ff;fontColor=#ffffff;strokeColor=#3700CC;" vertex="1" parent="1">
                    <mxGeometry x="827" width="160" height="160" as="geometry"/>
                </mxCell>
                <mxCell id="11" value="" style="endArrow=classic;html=1;entryX=0.96;entryY=0.7;entryDx=0;entryDy=0;entryPerimeter=0;exitX=0;exitY=0.5;exitDx=0;exitDy=0;curved=1;strokeColor=#F0F0F0;shadow=0;sketch=0;strokeWidth=5;" edge="1" parent="1" source="10" target="2">
                    <mxGeometry width="50" height="50" relative="1" as="geometry">
                        <mxPoint x="588" y="-81" as="sourcePoint"/>
                        <mxPoint x="510" y="-230" as="targetPoint"/>
                    </mxGeometry>
                </mxCell>
                <mxCell id="12" value="&lt;h3&gt;Take information once a week/month etc.&lt;/h3&gt;" style="edgeLabel;html=1;align=center;verticalAlign=middle;resizable=0;points=[];" vertex="1" connectable="0" parent="11">
                    <mxGeometry x="-0.1646" y="-1" relative="1" as="geometry">
                        <mxPoint x="-11" y="6" as="offset"/>
                    </mxGeometry>
                </mxCell>
                <mxCell id="13" value="&lt;h2&gt;MongoDb&lt;/h2&gt;&lt;div&gt;For backup data if the app crashes&lt;/div&gt;" style="shape=cylinder3;whiteSpace=wrap;html=1;boundedLbl=1;backgroundOutline=1;size=15;" vertex="1" parent="1">
                    <mxGeometry x="-140" y="-30" width="100" height="140" as="geometry"/>
                </mxCell>
                <mxCell id="17" value="&lt;h2&gt;Tweeting&lt;/h2&gt;" style="whiteSpace=wrap;html=1;aspect=fixed;fillColor=#6a00ff;fontColor=#ffffff;strokeColor=#3700CC;" vertex="1" parent="1">
                    <mxGeometry x="320" y="560" width="160" height="160" as="geometry"/>
                </mxCell>
                <mxCell id="18" value="&lt;h1&gt;Twitter&lt;/h1&gt;" style="ellipse;shape=cloud;whiteSpace=wrap;html=1;fillColor=#1ba1e2;fontColor=#ffffff;strokeColor=#006EAF;" vertex="1" parent="1">
                    <mxGeometry x="250" y="810" width="300" height="130" as="geometry"/>
                </mxCell>
                <mxCell id="19" value="" style="endArrow=classic;html=1;entryX=0.625;entryY=0.2;entryDx=0;entryDy=0;entryPerimeter=0;exitX=0.5;exitY=1;exitDx=0;exitDy=0;curved=1;strokeColor=#F0F0F0;shadow=0;sketch=0;strokeWidth=5;" edge="1" parent="1" source="17" target="18">
                    <mxGeometry width="50" height="50" relative="1" as="geometry">
                        <mxPoint x="310.5" y="799.9" as="sourcePoint"/>
                        <mxPoint x="429.5" y="669.9999999999999" as="targetPoint"/>
                        <Array as="points">
                            <mxPoint x="366.5" y="739.9"/>
                        </Array>
                    </mxGeometry>
                </mxCell>
                <mxCell id="20" value="&lt;h3&gt;TAKE INFORMATION EVERY 1'30&quot;/2' IF HT&lt;/h3&gt;" style="edgeLabel;html=1;align=center;verticalAlign=middle;resizable=0;points=[];" vertex="1" connectable="0" parent="19">
                    <mxGeometry x="-0.1646" y="-1" relative="1" as="geometry">
                        <mxPoint x="-115" y="-26" as="offset"/>
                    </mxGeometry>
                </mxCell>
                <mxCell id="22" value="" style="endArrow=classic;html=1;shadow=0;sketch=0;strokeColor=#10739e;strokeWidth=4;curved=1;entryX=0.95;entryY=1.019;entryDx=0;entryDy=0;entryPerimeter=0;exitX=0;exitY=0;exitDx=0;exitDy=0;dashed=1;fillColor=#b1ddf0;" edge="1" parent="1" source="17" target="4">
                    <mxGeometry width="50" height="50" relative="1" as="geometry">
                        <mxPoint x="220" y="590" as="sourcePoint"/>
                        <mxPoint x="270" y="540" as="targetPoint"/>
                    </mxGeometry>
                </mxCell>
                <mxCell id="23" value="" style="endArrow=classic;html=1;shadow=0;sketch=0;strokeColor=#10739e;strokeWidth=4;curved=1;entryX=0;entryY=0.5;entryDx=0;entryDy=0;exitX=1;exitY=0;exitDx=0;exitDy=0;dashed=1;fillColor=#b1ddf0;" edge="1" parent="1" source="17" target="7">
                    <mxGeometry width="50" height="50" relative="1" as="geometry">
                        <mxPoint x="484" y="560" as="sourcePoint"/>
                        <mxPoint x="420" y="513.04" as="targetPoint"/>
                    </mxGeometry>
                </mxCell>
                <mxCell id="24" value="" style="endArrow=classic;html=1;shadow=0;sketch=0;strokeColor=#10739e;strokeWidth=4;curved=1;entryX=0;entryY=1;entryDx=0;entryDy=0;exitX=0.5;exitY=0;exitDx=0;exitDy=0;dashed=1;fillColor=#b1ddf0;" edge="1" parent="1" source="17" target="10">
                    <mxGeometry width="50" height="50" relative="1" as="geometry">
                        <mxPoint x="494" y="631.96" as="sourcePoint"/>
                        <mxPoint x="430" y="585" as="targetPoint"/>
                    </mxGeometry>
                </mxCell>
                <mxCell id="25" value="&lt;h2&gt;Match Live Replay&lt;/h2&gt;" style="whiteSpace=wrap;html=1;aspect=fixed;fillColor=#6a00ff;fontColor=#ffffff;strokeColor=#3700CC;" vertex="1" parent="1">
                    <mxGeometry x="-270" y="420" width="160" height="160" as="geometry"/>
                </mxCell>
                <mxCell id="26" value="" style="endArrow=classic;html=1;shadow=0;dashed=1;sketch=0;strokeColor=#00994D;strokeWidth=8;curved=1;entryX=0.5;entryY=1;entryDx=0;entryDy=0;entryPerimeter=0;fillColor=#cdeb8b;exitX=0.5;exitY=0;exitDx=0;exitDy=0;" edge="1" parent="1" source="4" target="13">
                    <mxGeometry width="50" height="50" relative="1" as="geometry">
                        <mxPoint x="650" y="360" as="sourcePoint"/>
                        <mxPoint x="700" y="310" as="targetPoint"/>
                    </mxGeometry>
                </mxCell>
                <mxCell id="27" value="REPLAY" style="edgeLabel;html=1;align=center;verticalAlign=middle;resizable=0;points=[];" vertex="1" connectable="0" parent="26">
                    <mxGeometry x="0.3029" y="-3" relative="1" as="geometry">
                        <mxPoint x="-38" y="-31" as="offset"/>
                    </mxGeometry>
                </mxCell>
                <mxCell id="28" value="" style="endArrow=classic;html=1;shadow=0;dashed=1;sketch=0;strokeColor=#00994D;strokeWidth=8;curved=1;entryX=0.5;entryY=0;entryDx=0;entryDy=0;exitX=0.145;exitY=1;exitDx=0;exitDy=-4.35;exitPerimeter=0;" edge="1" parent="1" source="13" target="25">
                    <mxGeometry width="50" height="50" relative="1" as="geometry">
                        <mxPoint x="320" y="-260" as="sourcePoint"/>
                        <mxPoint x="370" y="-310" as="targetPoint"/>
                    </mxGeometry>
                </mxCell>
                <mxCell id="29" value="REPLAY" style="edgeLabel;html=1;align=center;verticalAlign=middle;resizable=0;points=[];" vertex="1" connectable="0" parent="28">
                    <mxGeometry x="0.0971" y="-3" relative="1" as="geometry">
                        <mxPoint as="offset"/>
                    </mxGeometry>
                </mxCell>
                <mxCell id="30" value="" style="endArrow=classic;html=1;shadow=0;sketch=0;strokeColor=#10739e;strokeWidth=4;curved=1;entryX=1;entryY=1;entryDx=0;entryDy=0;exitX=0;exitY=0.5;exitDx=0;exitDy=0;dashed=1;fillColor=#b1ddf0;" edge="1" parent="1" source="17" target="25">
                    <mxGeometry width="50" height="50" relative="1" as="geometry">
                        <mxPoint x="404" y="560" as="sourcePoint"/>
                        <mxPoint x="522" y="7" as="targetPoint"/>
                    </mxGeometry>
                </mxCell>
                <mxCell id="31" value="" style="endArrow=classic;html=1;exitX=0;exitY=0;exitDx=0;exitDy=0;entryX=1;entryY=0.5;entryDx=0;entryDy=0;entryPerimeter=0;strokeWidth=6;" edge="1" parent="1" source="10" target="13">
                    <mxGeometry width="50" height="50" relative="1" as="geometry">
                        <mxPoint x="780" y="20" as="sourcePoint"/>
                        <mxPoint x="830" y="-30" as="targetPoint"/>
                        <Array as="points">
                            <mxPoint x="380" y="-70"/>
                        </Array>
                    </mxGeometry>
                </mxCell>
                <mxCell id="34" value="&lt;h3&gt;STOCK LAST STATISTIC TO COMPARE&lt;/h3&gt;" style="edgeLabel;html=1;align=center;verticalAlign=middle;resizable=0;points=[];" vertex="1" connectable="0" parent="31">
                    <mxGeometry x="-0.1322" relative="1" as="geometry">
                        <mxPoint x="-67" y="-11" as="offset"/>
                    </mxGeometry>
                </mxCell>
                <mxCell id="35" value="" style="endArrow=classic;html=1;fontSize=12;strokeWidth=6;exitX=0;exitY=0.5;exitDx=0;exitDy=0;entryX=0.5;entryY=1;entryDx=0;entryDy=0;entryPerimeter=0;" edge="1" parent="1" source="17" target="13">
                    <mxGeometry width="50" height="50" relative="1" as="geometry">
                        <mxPoint x="110" y="380" as="sourcePoint"/>
                        <mxPoint x="160" y="330" as="targetPoint"/>
                        <Array as="points">
                            <mxPoint x="10" y="500"/>
                        </Array>
                    </mxGeometry>
                </mxCell>
                <mxCell id="36" value="INSERT LAST SCORE TWEETED" style="edgeLabel;html=1;align=center;verticalAlign=middle;resizable=0;points=[];fontSize=12;" vertex="1" connectable="0" parent="35">
                    <mxGeometry x="-0.0568" y="4" relative="1" as="geometry">
                        <mxPoint as="offset"/>
                    </mxGeometry>
                </mxCell>
            </root>
        </mxGraphModel>
    </diagram>
</mxfile>